<svg width="324" height="388" viewBox="0 0 324 388" fill="none" xmlns="http://www.w3.org/2000/svg">
<path d="M227.902 381.519C147.575 399.312 129.541 365.681 115.079 345.468C100.622 325.251 78.6451 297.529 64.7649 280.783C50.8847 264.032 42.1513 251.766 25.8616 228.096C7.39313 201.26 -9.75053 181.854 10.8043 165.555C31.3592 149.256 50.7416 168.021 67.0775 185.486C77.2603 196.374 96.5734 209.741 96.5734 209.741C98.7337 211.484 95.4148 194.922 94.1731 187.883C92.9268 180.844 82.9748 131.979 78.4143 119.142C73.8537 106.309 49.6615 54.5809 44.8285 46.6756C38.2739 35.9677 36.9445 8.96523 62.5723 2.52114C89.5895 -4.27788 100.806 23.4898 107.029 34.6678C112.166 43.9099 123.821 65.026 130.284 78.8545C133.067 75.6002 140.342 69.3129 154.107 70.8386C168.772 72.4658 176.282 83.3949 181.659 93.9599C188.14 85.4507 206.41 84.3491 219.455 93.9599C227.2 99.6665 234.018 108.231 238.828 115.44C255.893 110.54 268.541 117.072 286.275 145.798C304.204 174.838 316.962 222.851 321.721 276.432C327.921 346.243 299.048 365.764 227.902 381.519Z" fill="#725244" stroke="#151313" stroke-width="2" stroke-linecap="round" stroke-linejoin="round"/>
<path d="M281.816 245.945C289.202 250.729 290.277 255.076 290.277 255.076" stroke="#151313" stroke-width="2" stroke-linecap="round" stroke-linejoin="round"/>
<path d="M130.284 78.8499C131.645 81.7539 132.772 84.3399 133.566 86.4234C138.126 98.4357 143.185 115.191 156.087 153.579" stroke="#151313" stroke-width="2" stroke-linecap="round" stroke-linejoin="round"/>
<path d="M181.659 93.9553C183.021 96.6334 184.249 99.2885 185.417 101.764C191.205 113.997 198.351 136.427 198.351 136.427" stroke="#151313" stroke-width="2" stroke-linecap="round" stroke-linejoin="round"/>
<path d="M243.956 123.853C242.705 121.557 240.965 118.63 238.828 115.436" stroke="#151313" stroke-width="2" stroke-linecap="round" stroke-linejoin="round"/>
<path d="M148.475 130.73C122.598 117.805 91.8375 138.285 86.1691 149.504C86.1691 149.504 77.0526 143.166 81.1146 128.333C81.1146 128.333 89.2618 112.37 114.391 108.106C139.52 103.843 150.211 116.219 148.475 130.73Z" fill="#F6671E" stroke="#151313" stroke-width="2" stroke-linecap="round" stroke-linejoin="round"/>
<path d="M24.2275 165.14C34.0272 171.662 47.1273 190.612 44.0162 201.974C40.1757 216.015 25.9031 218.453 25.9031 218.453" stroke="#151313" stroke-width="2" stroke-linecap="round" stroke-linejoin="round"/>
<path d="M51.5955 14.2247C51.5955 14.2247 65.8265 35.244 71.4625 43.6564C78.8158 54.6316 107.481 49.3122 103.982 35.8294" stroke="#151313" stroke-width="2" stroke-linecap="round" stroke-linejoin="round"/>
<path d="M144.944 129.177C146.061 129.624 149.625 134.196 150.211 135.966L148.221 130.306L144.944 129.177Z" fill="#151313"/>
<path d="M130.284 99.9891C125.894 97.9932 122.224 99.9891 122.224 99.9891" stroke="#151313" stroke-width="2" stroke-linecap="round" stroke-linejoin="round"/>
<path d="M171.892 93.9553C165.559 92.3281 162.891 93.9553 162.891 93.9553" stroke="#151313" stroke-width="2" stroke-linecap="round" stroke-linejoin="round"/>
<path d="M104.277 213.577C104.277 213.577 106.71 216.9 110.574 218.453" stroke="#151313" stroke-width="2" stroke-linecap="round" stroke-linejoin="round"/>
</svg>
