<svg width="369" height="561" viewBox="0 0 369 561" fill="none" xmlns="http://www.w3.org/2000/svg">
<g clip-path="url(#clip0_89_964)">
<path d="M299.961 311.306C296.478 314.181 262.232 330.486 251.886 334.636C245.437 333.195 235.274 276.391 229.392 277.249C220.897 278.487 209.147 282.657 191.603 287.227C189.742 285.78 188.04 284.002 186.496 281.868C175.844 267.139 181.114 249.677 193.211 226.81C218.425 219.529 246.223 213.991 260.929 220.089C282.096 228.867 345.093 290.811 339.954 301.312C341.976 306.678 315.366 290.07 317.341 294.564C322.931 307.265 306.887 305.608 299.967 311.308L299.961 311.306Z" fill="#725244" stroke="#151313" stroke-width="2" stroke-linecap="round" stroke-linejoin="round"/>
<path d="M321.061 413.744C313.069 425.18 284.835 455.034 270.3 470.501C255.763 485.973 229.773 513.98 194.381 513.45C176.025 513.172 128.473 506.127 89.8257 484.827C42.8565 458.941 39.9029 431.571 50.5204 386.972C57.3012 358.5 74.2621 320.852 87.9342 293.037C95.6782 277.275 102.37 264.677 105.553 258.688C107.995 254.099 110.855 248.436 113.893 242.401C121.823 226.665 132.808 209.466 137.135 200.092C161.064 148.232 173.526 136.679 203.607 155.772C224.516 169.039 206.663 201.689 194.007 225.3C193.739 225.804 193.471 226.308 193.205 226.807C181.108 249.674 175.839 267.137 186.491 281.865C188.035 283.999 189.737 285.777 191.597 287.225C202.831 296 219.717 292.886 241.604 285.872C254.253 281.815 266.701 277.433 276.882 273.356C287.229 269.207 295.234 265.367 298.718 262.493C305.638 256.792 308.023 248.109 302.432 235.408C300.457 230.915 298.364 225.581 296.342 220.215C292.641 210.405 289.155 200.499 286.984 195.442C283.619 187.619 283.309 164.11 305.477 155.917C327.639 147.722 339.397 168.517 344.988 181.218C350.57 193.922 370.25 243.062 372.215 255.135C374.056 266.455 370.704 286.586 354.081 301.133C365.781 329.831 341.608 354.186 341.608 354.186C343.407 373.243 329.109 390.646 329.109 390.646C329.109 390.646 329.056 402.314 321.061 413.744Z" fill="#725244" stroke="#151313" stroke-width="2" stroke-linecap="round" stroke-linejoin="round"/>
<path d="M311.278 334.289C311.278 334.289 330.9 318.636 350.567 303.975C351.801 303.06 352.967 302.108 354.081 301.133" stroke="#151313" stroke-width="2" stroke-linecap="round" stroke-linejoin="round"/>
<path d="M241.604 285.872C237.453 287.465 227.804 289.451 223.357 290.85C201.44 297.774 202.831 296 191.597 287.225C209.141 282.654 220.891 278.485 229.387 277.246C235.269 276.389 237.642 281.751 241.604 285.872Z" fill="#725244" stroke="#151313" stroke-width="2" stroke-linecap="round" stroke-linejoin="round"/>
<path d="M113.893 242.401C110.855 248.436 107.995 254.099 105.553 258.688C102.37 264.677 95.6782 277.275 87.9341 293.037C82.9973 289.177 79.6421 283.271 79.7498 274.437C80.0137 252.594 99.5016 246.036 113.893 242.401Z" fill="#725244" stroke="#151313" stroke-width="2" stroke-linecap="round" stroke-linejoin="round"/>
<path d="M258.231 34.6176L271.933 36.1134C277.595 36.7285 283.214 38.6339 288.458 41.9309L274.755 40.4351C269.511 37.1381 263.898 35.235 258.231 34.6176Z" fill="#F6671E"/>
<mask id="mask0_89_964" style="mask-type:luminance" maskUnits="userSpaceOnUse" x="258" y="34" width="31" height="8">
<path d="M258.231 34.6176L271.933 36.1134C277.595 36.7285 283.214 38.6339 288.458 41.9309L274.755 40.4351C269.511 37.1381 263.898 35.235 258.231 34.6176Z" fill="white"/>
</mask>
<g mask="url(#mask0_89_964)">
<path d="M258.231 34.6176L271.933 36.1135C271.97 36.117 272.012 36.1229 272.048 36.1264L258.346 34.6306C258.309 34.6271 258.267 34.6212 258.231 34.6176Z" fill="#F6671E" stroke="#151313" stroke-width="2" stroke-linecap="round" stroke-linejoin="round"/>
<path d="M258.354 34.6276L272.056 36.1234C273.486 36.2869 274.91 36.5236 276.33 36.8542L262.627 35.3584C261.21 35.0355 259.784 34.7911 258.354 34.6276Z" fill="#F6671E" stroke="#151313" stroke-width="2" stroke-linecap="round" stroke-linejoin="round"/>
<path d="M262.622 35.356L276.324 36.8518C277.452 37.1099 278.574 37.4228 279.691 37.7907L265.988 36.2949C264.871 35.927 263.749 35.6141 262.622 35.356Z" fill="#F6671E" stroke="#151313" stroke-width="2" stroke-linecap="round" stroke-linejoin="round"/>
<path d="M265.988 36.2949L279.691 37.7907C280.657 38.1108 281.619 38.4676 282.576 38.8662L268.874 37.3704C267.917 36.9717 266.957 36.6097 265.988 36.2949Z" fill="#F6671E" stroke="#151313" stroke-width="2" stroke-linecap="round" stroke-linejoin="round"/>
<path d="M268.874 37.3704L282.576 38.8662C283.44 39.2301 284.295 39.6281 285.149 40.0575L271.447 38.5617C270.593 38.1323 269.737 37.7342 268.874 37.3704Z" fill="#F6671E" stroke="#151313" stroke-width="2" stroke-linecap="round" stroke-linejoin="round"/>
<path d="M271.447 38.5617L285.149 40.0575C285.934 40.4562 286.718 40.8862 287.489 41.3428L273.787 39.847C273.015 39.3904 272.231 38.9604 271.447 38.5617Z" fill="#F6671E" stroke="#151313" stroke-width="2" stroke-linecap="round" stroke-linejoin="round"/>
<path d="M273.792 39.8493L287.495 41.3452C287.817 41.5386 288.138 41.7321 288.458 41.9309L274.755 40.4351C274.436 40.2363 274.116 40.0375 273.792 39.8493Z" fill="#F6671E" stroke="#151313" stroke-width="2" stroke-linecap="round" stroke-linejoin="round"/>
</g>
<path d="M258.231 34.6176L271.933 36.1134C277.595 36.7285 283.214 38.6339 288.458 41.9309L274.755 40.4351C269.511 37.1381 263.898 35.235 258.231 34.6176Z" stroke="#151313" stroke-width="2" stroke-linecap="round" stroke-linejoin="round"/>
<path d="M261.317 133.763L247.615 132.267C264.311 134.092 281.393 124.745 290.396 107.004C302.451 83.2542 295.446 53.4462 274.752 40.4274L288.455 41.9232C309.151 54.9367 316.156 84.7446 304.099 108.5C295.098 126.235 278.011 135.58 261.317 133.763Z" fill="#F6671E"/>
<mask id="mask1_89_964" style="mask-type:luminance" maskUnits="userSpaceOnUse" x="247" y="40" width="64" height="94">
<path d="M261.317 133.763L247.615 132.267C264.311 134.092 281.393 124.745 290.396 107.004C302.451 83.2542 295.446 53.4462 274.752 40.4274L288.455 41.9232C309.151 54.9367 316.156 84.7446 304.099 108.5C295.098 126.235 278.011 135.58 261.317 133.763Z" fill="white"/>
</mask>
<g mask="url(#mask1_89_964)">
<path d="M274.755 40.4351L288.458 41.9309C288.882 42.1952 289.296 42.4677 289.708 42.7456L276.005 41.2498C275.593 40.9719 275.179 40.6994 274.755 40.4351Z" fill="#F6671E" stroke="#151313" stroke-width="2" stroke-linecap="round" stroke-linejoin="round"/>
<path d="M276.005 41.2498L289.708 42.7456C290.413 43.2235 291.101 43.7255 291.769 44.2441L278.066 42.7483C277.398 42.2297 276.708 41.733 276.005 41.2498Z" fill="#F6671E" stroke="#151313" stroke-width="2" stroke-linecap="round" stroke-linejoin="round"/>
<path d="M278.066 42.7483L291.769 44.2441C292.429 44.7527 293.076 45.2878 293.701 45.8318L279.999 44.336C279.369 43.7896 278.726 43.2569 278.066 42.7483Z" fill="#F6671E" stroke="#151313" stroke-width="2" stroke-linecap="round" stroke-linejoin="round"/>
<path d="M280.004 44.3384L293.707 45.8342C294.34 46.3882 294.955 46.9535 295.554 47.5429L281.851 46.0471C281.253 45.4576 280.637 44.8924 280.004 44.3384Z" fill="#F6671E" stroke="#151313" stroke-width="2" stroke-linecap="round" stroke-linejoin="round"/>
<path d="M281.851 46.0471L295.554 47.5429C296.163 48.1371 296.749 48.7531 297.323 49.3827L283.621 47.8869C283.052 47.2597 282.458 46.6466 281.851 46.0471Z" fill="#F6671E" stroke="#151313" stroke-width="2" stroke-linecap="round" stroke-linejoin="round"/>
<path d="M283.618 47.8793L297.32 49.3751C297.906 50.0224 298.477 50.6886 299.024 51.3637L285.322 49.8679C284.771 49.1851 284.206 48.5213 283.618 47.8793Z" fill="#F6671E" stroke="#151313" stroke-width="2" stroke-linecap="round" stroke-linejoin="round"/>
<path d="M285.325 49.8756L299.027 51.3714C299.611 52.0943 300.172 52.839 300.711 53.5926L287.008 52.0968C286.467 51.3355 285.909 50.5985 285.325 49.8756Z" fill="#F6671E" stroke="#151313" stroke-width="2" stroke-linecap="round" stroke-linejoin="round"/>
<path d="M287.008 52.0968L300.711 53.5926C301.288 54.4017 301.836 55.2356 302.363 56.086L288.66 54.5902C288.133 53.7398 287.583 52.9112 287.008 52.0968Z" fill="#F6671E" stroke="#151313" stroke-width="2" stroke-linecap="round" stroke-linejoin="round"/>
<path d="M288.66 54.5902L302.363 56.086C302.941 57.0226 303.492 57.9787 304.001 58.9548L290.299 57.459C289.784 56.4805 289.239 55.5268 288.66 54.5902Z" fill="#F6671E" stroke="#151313" stroke-width="2" stroke-linecap="round" stroke-linejoin="round"/>
<path d="M290.301 57.4537L304.004 58.9495C304.604 60.0803 305.154 61.2394 305.663 62.4187L291.96 60.9228C291.451 59.7436 290.894 58.5874 290.301 57.4537Z" fill="#F6671E" stroke="#151313" stroke-width="2" stroke-linecap="round" stroke-linejoin="round"/>
<path d="M291.965 60.9252L305.668 62.421C306.314 63.9089 306.889 65.4417 307.392 66.9935L293.689 65.4976C293.183 63.9382 292.611 62.4131 291.965 60.9252Z" fill="#F6671E" stroke="#151313" stroke-width="2" stroke-linecap="round" stroke-linejoin="round"/>
<path d="M293.689 65.4977L307.392 66.9935C309.712 74.1571 310.522 81.9549 309.676 89.7244L295.974 88.2286C296.825 80.4614 296.015 72.6637 293.689 65.4977Z" fill="#F6671E" stroke="#151313" stroke-width="2" stroke-linecap="round" stroke-linejoin="round"/>
<path d="M295.974 88.2286L309.676 89.7244C309.495 91.3544 309.244 92.9849 308.921 94.6031L295.219 93.1073C295.543 91.4838 295.795 89.8532 295.974 88.2286Z" fill="#F6671E" stroke="#151313" stroke-width="2" stroke-linecap="round" stroke-linejoin="round"/>
<path d="M295.216 93.1126L308.919 94.6084C308.661 95.8931 308.354 97.1748 308 98.4483L294.298 96.9524C294.652 95.679 294.959 94.3973 295.216 93.1126Z" fill="#F6671E" stroke="#151313" stroke-width="2" stroke-linecap="round" stroke-linejoin="round"/>
<path d="M294.3 96.9471L308.002 98.4429C307.697 99.5475 307.356 100.649 306.975 101.739L293.272 100.243C293.648 99.1505 293.995 98.0517 294.3 96.9471Z" fill="#F6671E" stroke="#151313" stroke-width="2" stroke-linecap="round" stroke-linejoin="round"/>
<path d="M293.27 100.248L306.972 101.744C306.631 102.73 306.257 103.716 305.852 104.687L292.15 103.191C292.55 102.218 292.928 101.235 293.27 100.248Z" fill="#F6671E" stroke="#151313" stroke-width="2" stroke-linecap="round" stroke-linejoin="round"/>
<path d="M292.158 103.188L305.86 104.684C305.486 105.586 305.088 106.484 304.668 107.373L290.966 105.877C291.391 104.991 291.789 104.093 292.158 103.188Z" fill="#F6671E" stroke="#151313" stroke-width="2" stroke-linecap="round" stroke-linejoin="round"/>
<path d="M290.961 105.875L304.663 107.371C304.483 107.748 304.295 108.129 304.104 108.502C303.861 108.98 303.614 109.449 303.365 109.911L289.663 108.415C289.914 107.948 290.166 107.481 290.402 107.007C290.592 106.633 290.78 106.253 290.961 105.875Z" fill="#F6671E" stroke="#151313" stroke-width="2" stroke-linecap="round" stroke-linejoin="round"/>
<path d="M289.655 108.418L303.358 109.914C302.916 110.723 302.456 111.517 301.979 112.291L288.277 110.795C288.753 110.021 289.211 109.232 289.655 108.418Z" fill="#F6671E" stroke="#151313" stroke-width="2" stroke-linecap="round" stroke-linejoin="round"/>
<path d="M288.277 110.795L301.979 112.291C301.507 113.054 301.026 113.795 300.526 114.521L286.824 113.025C287.323 112.299 287.807 111.553 288.277 110.795Z" fill="#F6671E" stroke="#151313" stroke-width="2" stroke-linecap="round" stroke-linejoin="round"/>
<path d="M286.824 113.025L300.526 114.521C300.024 115.252 299.505 115.963 298.967 116.659L285.264 115.163C285.8 114.472 286.319 113.761 286.824 113.025Z" fill="#F6671E" stroke="#151313" stroke-width="2" stroke-linecap="round" stroke-linejoin="round"/>
<path d="M285.264 115.163L298.967 116.659C298.427 117.36 297.868 118.047 297.294 118.708L283.592 117.213C284.16 116.549 284.717 115.867 285.264 115.163Z" fill="#F6671E" stroke="#151313" stroke-width="2" stroke-linecap="round" stroke-linejoin="round"/>
<path d="M283.6 117.21L297.302 118.706C296.714 119.386 296.115 120.048 295.493 120.689L281.791 119.193C282.407 118.55 283.009 117.895 283.6 117.21Z" fill="#F6671E" stroke="#151313" stroke-width="2" stroke-linecap="round" stroke-linejoin="round"/>
<path d="M281.791 119.193L295.493 120.689C294.837 121.364 294.17 122.022 293.483 122.652L279.781 121.156C280.468 120.526 281.135 119.868 281.791 119.193Z" fill="#F6671E" stroke="#151313" stroke-width="2" stroke-linecap="round" stroke-linejoin="round"/>
<path d="M279.781 121.156L293.483 122.652C292.752 123.326 292 123.972 291.237 124.588L277.535 123.092C278.298 122.476 279.049 121.83 279.781 121.156Z" fill="#F6671E" stroke="#151313" stroke-width="2" stroke-linecap="round" stroke-linejoin="round"/>
<path d="M277.54 123.094L291.242 124.59C290.401 125.266 289.541 125.915 288.668 126.52L274.965 125.024C275.841 124.414 276.699 123.771 277.54 123.094Z" fill="#F6671E" stroke="#151313" stroke-width="2" stroke-linecap="round" stroke-linejoin="round"/>
<path d="M274.965 125.024L288.668 126.52C287.654 127.227 286.619 127.881 285.561 128.487L271.858 126.991C272.911 126.383 273.948 125.724 274.965 125.024Z" fill="#F6671E" stroke="#151313" stroke-width="2" stroke-linecap="round" stroke-linejoin="round"/>
<path d="M271.856 126.996L285.559 128.492C284.224 129.261 282.868 129.951 281.477 130.561L267.774 129.065C269.16 128.453 270.522 127.766 271.856 126.996Z" fill="#F6671E" stroke="#151313" stroke-width="2" stroke-linecap="round" stroke-linejoin="round"/>
<path d="M267.774 129.065L281.477 130.561C275.083 133.379 268.166 134.516 261.318 133.763L247.615 132.267C254.466 133.015 261.38 131.883 267.774 129.065Z" fill="#F6671E" stroke="#151313" stroke-width="2" stroke-linecap="round" stroke-linejoin="round"/>
</g>
<path d="M261.317 133.763L247.615 132.267C264.311 134.092 281.393 124.745 290.396 107.004C302.451 83.2542 295.446 53.4462 274.752 40.4274L288.455 41.9232C309.151 54.9367 316.156 84.7446 304.099 108.5C295.098 126.235 278.011 135.58 261.317 133.763Z" stroke="#151313" stroke-width="2" stroke-linecap="round" stroke-linejoin="round"/>
<path d="M247.642 132.257C271.414 134.853 293.052 115.099 295.971 88.1369C298.89 61.1745 281.985 37.2133 258.213 34.618C234.44 32.0227 212.802 51.7762 209.883 78.7385C206.964 105.701 223.869 129.662 247.642 132.257Z" fill="#F6671E" stroke="#151313" stroke-width="2" stroke-linecap="round" stroke-linejoin="round"/>
<path d="M201.845 161.832C193.141 180.347 183.855 200.982 177.324 205.66C168.744 211.801 150.061 204.518 145.791 191.683" stroke="#151313" stroke-width="2" stroke-linecap="round" stroke-linejoin="round"/>
<path d="M324.389 159.163C324.389 159.163 337.556 196.706 347.48 196.253" stroke="#151313" stroke-width="2" stroke-linecap="round" stroke-linejoin="round"/>
<path d="M341.608 354.186L329.262 364.729" stroke="#151313" stroke-width="2" stroke-linecap="round" stroke-linejoin="round"/>
<path d="M329.109 390.646L323.142 395.847" stroke="#151313" stroke-width="2" stroke-linecap="round" stroke-linejoin="round"/>
<path d="M92.5559 283.73C91.2752 286.246 87.4388 289.6 85.0501 290.608L87.9342 293.037L92.5559 283.73Z" fill="#151313"/>
<path d="M255.507 222.009C250.895 223.564 249.826 227.585 249.826 227.585" stroke="#151313" stroke-width="2" stroke-linecap="round" stroke-linejoin="round"/>
<path d="M368.811 267.9C368.463 263.887 363.206 261.366 363.206 261.366" stroke="#151313" stroke-width="2" stroke-linecap="round" stroke-linejoin="round"/>
<path d="M83.5646 260.055C86.1169 263.462 108.727 252.605 108.727 252.605" stroke="#151313" stroke-width="2" stroke-linecap="round" stroke-linejoin="round"/>
</g>
<defs>
<clipPath id="clip0_89_964">
<rect width="281.585" height="487.672" fill="white" transform="translate(197.713 0.609741) rotate(23.9047)"/>
</clipPath>
</defs>
</svg>
