<svg width="390" height="535" viewBox="0 0 390 535" fill="none" xmlns="http://www.w3.org/2000/svg">
<path d="M197.51 136.461C206.736 127.433 215.798 130.291 221.501 133.932C223.293 135.297 225.134 136.817 227.004 138.469C226.16 137.573 224.21 135.668 221.501 133.932C221.284 133.764 221.064 133.602 220.848 133.438C210.298 125.561 200.198 106.017 215.237 91.8836C224.806 82.8944 235.895 85.6128 241.877 88.1817C241.793 87.9188 241.717 87.6475 241.642 87.3809C236.089 67.4462 258.626 54.8178 270.228 57.7066C279.111 59.9228 287.957 66.1945 290.86 68.3807C297.192 55.2135 312.042 48.6179 322.036 54.3207C328.631 58.0861 339.746 65.2675 353.162 78.9713C356.304 82.1858 359.571 85.7568 362.941 89.7255C374.408 103.244 394.772 135.646 397.555 140.095C400.135 131.968 406.792 125.323 420.2 121.478C442.835 114.978 450.874 136.679 456.771 160.78C462.666 184.877 475.309 203.774 488.439 231.479C503.064 262.334 508.207 278.63 507.41 314.491C506.472 356.8 485.923 370.189 451.778 382.547C417.634 394.91 369.911 408.005 338.586 406.492C307.263 404.984 292.793 392.239 271.649 349.371C250.498 306.5 244.855 274.055 240.089 248.966C235.327 223.875 228.026 206.256 217.588 193.503C207.15 180.75 182.02 151.618 197.51 136.461Z" fill="#725244"/>
<path d="M221.501 133.932C215.798 130.291 206.736 127.433 197.51 136.461C182.02 151.618 207.15 180.75 217.588 193.503C228.026 206.256 235.327 223.875 240.089 248.966C244.855 274.055 250.498 306.5 271.649 349.371C292.793 392.239 307.263 404.984 338.586 406.492C369.911 408.005 417.634 394.91 451.778 382.547C485.923 370.189 506.472 356.8 507.41 314.491C508.207 278.63 503.064 262.334 488.439 231.479C475.309 203.774 462.666 184.877 456.771 160.78C450.874 136.679 442.835 114.978 420.2 121.478C406.792 125.323 400.135 131.968 397.555 140.095C394.772 135.646 374.408 103.244 362.941 89.7255C359.571 85.7568 356.304 82.1858 353.162 78.9713C339.746 65.2675 328.631 58.0861 322.036 54.3207C312.042 48.6178 297.192 55.2135 290.86 68.3807C287.957 66.1945 279.111 59.9228 270.228 57.7066C258.626 54.8178 236.09 67.4462 241.642 87.3809C241.717 87.6475 241.793 87.9188 241.877 88.1817C235.895 85.6128 224.806 82.8944 215.237 91.8836C200.198 106.017 210.298 125.561 220.848 133.438C221.064 133.602 221.284 133.764 221.501 133.932ZM221.501 133.932C223.293 135.297 225.134 136.818 227.004 138.469C226.16 137.573 224.21 135.668 221.501 133.932Z" stroke="#151313" stroke-width="2" stroke-linecap="round" stroke-linejoin="round"/>
<path d="M227.471 138.979C227.471 138.979 227.315 138.799 227.021 138.485C227.014 138.482 227.006 138.474 227.004 138.469" fill="#725244"/>
<path d="M227.471 138.979C227.471 138.979 227.315 138.799 227.021 138.485C227.014 138.482 227.006 138.474 227.004 138.469" stroke="#151313" stroke-width="2" stroke-linecap="round" stroke-linejoin="round"/>
<path d="M397.555 140.095C394.301 150.336 397.519 162.93 401.842 175.241C409.601 197.311 414.121 216.798 416.647 228.352C418.723 237.849 418.027 252.264 416.783 264.469" stroke="#151313" stroke-width="2" stroke-linecap="round" stroke-linejoin="round"/>
<path d="M350.393 193.688C350.393 193.688 341.198 151.769 337.267 142.821C333.334 133.879 325.579 125.87 306.189 109.245C286.798 92.6147 285.41 80.0099 290.719 68.6693C290.763 68.5705 290.809 68.4765 290.86 68.3807" stroke="#151313" stroke-width="2" stroke-linecap="round" stroke-linejoin="round"/>
<path d="M310.775 202.721C303.433 165.704 291.827 144.145 278.586 132.259C265.532 120.536 247.587 107.297 241.877 88.1817" stroke="#151313" stroke-width="2" stroke-linecap="round" stroke-linejoin="round"/>
<path d="M227.004 138.469C227.004 138.469 227.009 138.484 227.021 138.485C236.031 146.463 245.67 157.495 252.974 168.488C261.976 182.045 273.727 222.919 273.727 222.919" stroke="#151313" stroke-width="2" stroke-linecap="round" stroke-linejoin="round"/>
<path d="M419.003 287.176C419.003 287.176 374.307 279.681 333.124 309.128" stroke="#151313" stroke-width="2" stroke-linecap="round" stroke-linejoin="round"/>
<path d="M307.301 264.674C307.301 264.674 341.588 270.202 349.427 296.376" stroke="#151313" stroke-width="2" stroke-linecap="round" stroke-linejoin="round"/>
<path d="M352.64 79.3229C345.239 84.1711 341.839 80.6671 332.691 74.5924C323.075 68.2048 310.747 57.2376 308.685 54.3212" stroke="#151313" stroke-width="2" stroke-linecap="round" stroke-linejoin="round"/>
<path d="M287.02 80.7232C287.02 80.7232 278.213 77.0308 274.215 73.2906C266.975 66.5162 265.094 59.9808 265.094 59.9808" stroke="#151313" stroke-width="2" stroke-linecap="round" stroke-linejoin="round"/>
<path d="M244.394 99.9406C244.394 99.9406 229.758 94.981 226.424 89.2729" stroke="#151313" stroke-width="2" stroke-linecap="round" stroke-linejoin="round"/>
<path d="M341.053 139.231C351.322 140.285 357.138 136.276 357.138 136.276" stroke="#151313" stroke-width="2" stroke-linecap="round" stroke-linejoin="round"/>
<path d="M265.002 216.847C260.758 218.951 257.917 219.549 257.917 219.549" stroke="#151313" stroke-width="2" stroke-linecap="round" stroke-linejoin="round"/>
<path d="M-15.4907 269.618C-5.41148 261.811 4.03346 260.803 12.5697 264.473C4.87682 227.311 15.4817 188.601 21.7785 173.694C28.3383 158.174 42.0421 137.216 58.3767 138.797C63.6145 139.301 67.3923 141.247 70.095 143.924C77.5695 127.394 90.6046 114.135 105.283 117.259C115.024 119.334 119.979 123.922 121.881 129.914C125.207 123.583 135.88 113.752 149.406 118.638C164.287 124.012 165.051 143.446 161.207 157.238C164.711 150.446 169.542 145.786 178.409 146.212C187.375 146.643 193.601 153.864 195.914 161.262C198.225 168.654 194.238 186.355 196.496 203.189C198.753 220.022 203.211 234.449 213.191 259.265C223.176 284.079 239.361 299.245 252.899 321.203C279.232 363.917 291.66 390.913 279.795 423.54C270.246 449.795 218.696 476.314 184.924 489.191C136.686 507.582 107.884 517.111 80.6144 488.44C57.1015 463.721 35.1469 428.037 22.3069 387.185C14.0849 361.037 12.2857 346.05 -3.07258 324.573C-19.2343 301.977 -34.5301 284.359 -15.4907 269.618Z" fill="#725244" stroke="#151313" stroke-width="2" stroke-linecap="round" stroke-linejoin="round"/>
<path d="M161.207 157.238C160.105 159.373 159.132 161.72 158.21 164.185C154.706 173.527 152.688 184.504 152.811 196.427C152.898 204.733 162.155 253.073 162.155 253.073" stroke="#151313" stroke-width="2" stroke-linecap="round" stroke-linejoin="round"/>
<path d="M96.1612 361.336C79.4475 353.848 64.1765 331.956 56.2292 321.71C48.2802 311.46 43.09 297.847 30.7435 280.617C25.333 273.058 19.2274 267.341 12.5697 264.473" stroke="#151313" stroke-width="2" stroke-linecap="round" stroke-linejoin="round"/>
<path d="M161.2 157.262C161.2 157.262 161.204 157.244 161.207 157.238" stroke="#151313" stroke-width="2" stroke-linecap="round" stroke-linejoin="round"/>
<path d="M121.881 129.914C122.943 133.244 123.062 137.005 122.529 141.009C121.296 150.348 110.268 176.577 105.232 209.528C101.954 231.005 117.935 272.92 117.935 272.92" stroke="#151313" stroke-width="2" stroke-linecap="round" stroke-linejoin="round"/>
<path d="M70.095 143.924C75.8158 149.591 76.7066 158.529 76.4029 163.992C75.9541 172.038 61.3036 209.074 59.7851 224.998C58.2637 240.93 71.1129 277.48 71.1129 277.48" stroke="#151313" stroke-width="2" stroke-linecap="round" stroke-linejoin="round"/>
</svg>
