<svg width="53" height="52" viewBox="0 0 53 52" fill="none" xmlns="http://www.w3.org/2000/svg">
<path d="M53 7.95359C53 12.3462 49.3629 15.9072 44.8763 15.9072C40.3897 15.9072 36.7526 12.3462 36.7526 7.95359C36.7526 3.56094 40.3897 0 44.8763 0C49.3629 0 53 3.56094 53 7.95359Z" fill="#F6671E"/>
<path d="M0 0.109705H31.7429C31.7429 0.109705 32.6934 7.49423 31.2309 11.8591C28.7523 19.2567 17.6634 25.6709 17.6634 25.6709L0 20.7961V0.109705Z" fill="#F6671E"/>
<path d="M0 30.8113L17.5865 25.6709L26.2199 34.1965C26.2199 34.1965 23.5572 38.6611 22.5107 41.7818C21.2234 45.6206 20.848 52 20.848 52H0V30.8113Z" fill="#F6671E"/>
<path d="M26.556 34.3033C26.556 34.3033 31.8266 27.8309 36.6086 25.0188C42.2718 21.6884 53 20.8439 53 20.8439V52H31.6143L26.556 34.3033Z" fill="#F6671E"/>
</svg>
