<svg width="78" height="78" viewBox="0 0 78 78" fill="none" xmlns="http://www.w3.org/2000/svg">
<g clip-path="url(#clip0_212_1953)">
<mask id="mask0_212_1953" style="mask-type:luminance" maskUnits="userSpaceOnUse" x="0" y="0" width="78" height="78">
<path d="M78 39C78 17.4609 60.5391 0 39 0C17.4609 0 0 17.4609 0 39C0 60.5391 17.4609 78 39 78C60.5391 78 78 60.5391 78 39Z" fill="white"/>
</mask>
<g mask="url(#mask0_212_1953)">
<path d="M78 0H0V78H78V0Z" fill="#405059"/>
<path d="M97.7039 56.7663L83.866 1.26543C81.9554 -6.39765 74.1943 -11.0609 66.5313 -9.15032L11.0303 4.68761C3.36727 6.59823 -1.29602 14.3592 0.614601 22.0223L14.4525 77.5232C16.3632 85.1863 24.1242 89.8496 31.7872 87.939L87.2882 74.1011C94.9512 72.1904 99.6145 64.4294 97.7039 56.7663Z" fill="#FFC801"/>
<path d="M41.6552 35.3224C46.1912 37.0242 50.5008 36.5713 54.5839 33.9635" stroke="black" stroke-width="2.22222" stroke-linecap="round"/>
<path d="M39.4454 24.6616C39.3203 23.4716 38.4953 22.5829 37.6028 22.6767C36.7102 22.7705 36.0881 23.8113 36.2132 25.0014C36.3383 26.1914 37.1632 27.0801 38.0557 26.9863C38.9483 26.8925 39.5704 25.8517 39.4454 24.6616Z" fill="black"/>
<path d="M56.6838 22.8498C56.5587 21.6597 55.7337 20.7711 54.8412 20.8649C53.9486 20.9587 53.3265 21.9995 53.4516 23.1895C53.5767 24.3796 54.4016 25.2683 55.2942 25.1745C56.1867 25.0807 56.8089 24.0399 56.6838 22.8498Z" fill="black"/>
</g>
</g>
<defs>
<clipPath id="clip0_212_1953">
<rect width="78" height="78" fill="white"/>
</clipPath>
</defs>
</svg>
