<svg width="30" height="31" viewBox="0 0 30 31" fill="none" xmlns="http://www.w3.org/2000/svg">
<path fill-rule="evenodd" clip-rule="evenodd" d="M1.5082 8.95013V5.61469C1.5082 3.79151 2.99149 2.30825 4.81464 2.30825H8.15008C8.56655 2.30825 8.90418 1.97062 8.90418 1.55415C8.90418 1.13768 8.56655 0.800049 8.15008 0.800049H4.81464C2.15986 0.800049 0 2.95988 0 5.61469V8.95013C0 9.3666 0.337634 9.70423 0.7541 9.70423C1.17057 9.70423 1.5082 9.3666 1.5082 8.95013ZM8.15008 28.9918C8.56655 28.9918 8.90418 29.3294 8.90418 29.7459C8.90418 30.1624 8.56655 30.5 8.15008 30.5H4.81464C2.15986 30.5 0 28.3401 0 25.6854V22.3499C0 21.9334 0.337634 21.5958 0.7541 21.5958C1.17057 21.5958 1.5082 21.9334 1.5082 22.3499V25.6854C1.5082 27.5085 2.99149 28.9918 4.81464 28.9918H8.15008ZM29.7 22.3499V25.6854C29.7 28.3401 27.5401 30.5 24.8853 30.5H21.5499C21.1334 30.5 20.7958 30.1624 20.7958 29.7459C20.7958 29.3294 21.1334 28.9918 21.5499 28.9918H24.8853C26.7085 28.9918 28.1918 27.5085 28.1918 25.6854V22.3499C28.1918 21.9334 28.5294 21.5958 28.9459 21.5958C29.3623 21.5958 29.7 21.9334 29.7 22.3499ZM29.7 5.61469V8.95013C29.7 9.3666 29.3623 9.70423 28.9459 9.70423C28.5294 9.70423 28.1918 9.3666 28.1918 8.95013V5.61469C28.1918 3.79151 26.7085 2.30825 24.8853 2.30825H21.5499C21.1334 2.30825 20.7958 1.97062 20.7958 1.55415C20.7958 1.13768 21.1334 0.800049 21.5499 0.800049H24.8853C27.5401 0.800049 29.7 2.95988 29.7 5.61469ZM20.0541 22.7513C20.3718 22.4578 20.3915 21.9623 20.098 21.6446C19.8045 21.3269 19.3091 21.3073 18.9914 21.6007C17.8609 22.645 16.3901 23.2201 14.85 23.2201C13.3099 23.2201 11.8391 22.645 10.7086 21.6007C10.3908 21.3073 9.89547 21.327 9.60198 21.6446C9.30852 21.9623 9.32815 22.4578 9.64586 22.7513C11.0666 24.0636 12.9148 24.7863 14.85 24.7863C16.7852 24.7863 18.6334 24.0636 20.0541 22.7513ZM16.4162 11.9955V17.5643C16.4162 18.6678 15.5184 19.5655 14.4149 19.5655H13.7768C13.3443 19.5655 12.9937 19.2149 12.9937 18.7824C12.9937 18.3499 13.3443 17.9993 13.7768 17.9993H14.4149C14.6548 17.9993 14.85 17.8042 14.85 17.5643V11.9955C14.85 11.563 15.2006 11.2124 15.6331 11.2124C16.0656 11.2124 16.4162 11.563 16.4162 11.9955ZM21.8109 14.1853V11.952C21.8109 11.5436 21.4798 11.2124 21.0713 11.2124C20.6628 11.2124 20.3317 11.5436 20.3317 11.952V14.1853C20.3317 14.5938 20.6628 14.9249 21.0713 14.9249C21.4798 14.9249 21.8109 14.5938 21.8109 14.1853ZM8.06307 14.1853C8.06307 14.5938 8.39421 14.9249 8.80267 14.9249C9.21113 14.9249 9.54227 14.5938 9.54227 14.1853V11.952C9.54227 11.5436 9.21113 11.2124 8.80267 11.2124C8.39421 11.2124 8.06307 11.5436 8.06307 11.952V14.1853Z" fill="black"/>
</svg>
