<svg width="20" height="20" viewBox="0 0 20 20" fill="none" xmlns="http://www.w3.org/2000/svg">
<path d="M18.3334 10V14.1667C18.3334 16.6667 16.6667 18.3334 14.1667 18.3334H5.83335C3.33335 18.3334 1.66669 16.6667 1.66669 14.1667V10C1.66669 7.73337 3.03335 6.15004 5.15835 5.88337C5.37502 5.85004 5.60002 5.83337 5.83335 5.83337H14.1667C14.3834 5.83337 14.5917 5.8417 14.7917 5.87503C16.9417 6.12503 18.3334 7.71671 18.3334 10Z" stroke="#292D32" stroke-width="1.5" stroke-linecap="round" stroke-linejoin="round"/>
<path d="M14.7928 5.87496C14.5928 5.84163 14.3845 5.8333 14.1678 5.8333H5.83448C5.60115 5.8333 5.37615 5.84997 5.15948 5.8833C5.27615 5.64997 5.44282 5.4333 5.64282 5.2333L8.35115 2.51663C9.49282 1.38329 11.3428 1.38329 12.4845 2.51663L13.9428 3.99164C14.4762 4.51664 14.7595 5.18329 14.7928 5.87496Z" stroke="#292D32" stroke-width="1.5" stroke-linecap="round" stroke-linejoin="round"/>
<path d="M18.3334 10.4166H15.8334C14.9167 10.4166 14.1667 11.1666 14.1667 12.0833C14.1667 13 14.9167 13.75 15.8334 13.75H18.3334" stroke="#292D32" stroke-width="1.5" stroke-linecap="round" stroke-linejoin="round"/>
</svg>
